<mxfile host="Electron" agent="Mozilla/5.0 (X11; Linux x86_64) AppleWebKit/537.36 (KHTML, like Gecko) draw.io/26.0.9 Chrome/128.0.6613.186 Electron/32.3.1 Safari/537.36" version="26.0.9">
  <diagram name="Page-1" id="2a216829-ef6e-dabb-86c1-c78162f3ba2b">
    <mxGraphModel dx="1243" dy="769" grid="1" gridSize="10" guides="1" tooltips="1" connect="1" arrows="1" fold="1" page="1" pageScale="1" pageWidth="850" pageHeight="1100" background="none" math="0" shadow="0">
      <root>
        <mxCell id="0" />
        <mxCell id="1" parent="0" />
        <mxCell id="7a84cebc1def654-1" value="" style="shape=mxgraph.bpmn.shape;html=1;verticalLabelPosition=bottom;labelBackgroundColor=#ffffff;verticalAlign=top;perimeter=ellipsePerimeter;outline=standard;symbol=general;" parent="1" vertex="1">
          <mxGeometry x="260" y="265" width="50" height="50" as="geometry" />
        </mxCell>
        <mxCell id="VPkiGNfmG6axSRrIselH-10" style="edgeStyle=orthogonalEdgeStyle;rounded=0;orthogonalLoop=1;jettySize=auto;html=1;" edge="1" parent="1" source="7a84cebc1def654-2" target="7a84cebc1def654-3">
          <mxGeometry relative="1" as="geometry" />
        </mxCell>
        <mxCell id="7a84cebc1def654-2" value="Заполнить заявку" style="shape=ext;rounded=1;html=1;whiteSpace=wrap;" parent="1" vertex="1">
          <mxGeometry x="360" y="250" width="120" height="80" as="geometry" />
        </mxCell>
        <mxCell id="VPkiGNfmG6axSRrIselH-11" style="edgeStyle=orthogonalEdgeStyle;rounded=0;orthogonalLoop=1;jettySize=auto;html=1;" edge="1" parent="1" source="7a84cebc1def654-3" target="VPkiGNfmG6axSRrIselH-8">
          <mxGeometry relative="1" as="geometry" />
        </mxCell>
        <mxCell id="7a84cebc1def654-3" value="Рассмотреть заявку" style="shape=ext;rounded=1;html=1;whiteSpace=wrap;" parent="1" vertex="1">
          <mxGeometry x="360" y="400" width="120" height="80" as="geometry" />
        </mxCell>
        <mxCell id="7a84cebc1def654-36" style="edgeStyle=orthogonalEdgeStyle;rounded=0;html=1;jettySize=auto;orthogonalLoop=1;" parent="1" source="7a84cebc1def654-1" target="7a84cebc1def654-2" edge="1">
          <mxGeometry relative="1" as="geometry" />
        </mxCell>
        <mxCell id="VPkiGNfmG6axSRrIselH-2" value="" style="html=1;verticalLabelPosition=bottom;align=center;labelBackgroundColor=#ffffff;verticalAlign=top;strokeWidth=2;strokeColor=#000000;shadow=0;dashed=0;shape=mxgraph.ios7.icons.document;" vertex="1" parent="1">
          <mxGeometry x="873.2" y="660" width="33.6" height="48" as="geometry" />
        </mxCell>
        <mxCell id="VPkiGNfmG6axSRrIselH-16" style="edgeStyle=orthogonalEdgeStyle;rounded=0;orthogonalLoop=1;jettySize=auto;html=1;entryX=0;entryY=0.5;entryDx=0;entryDy=0;" edge="1" parent="1" source="VPkiGNfmG6axSRrIselH-8" target="VPkiGNfmG6axSRrIselH-15">
          <mxGeometry relative="1" as="geometry">
            <mxPoint x="585" y="330" as="targetPoint" />
            <Array as="points">
              <mxPoint x="585" y="290" />
            </Array>
          </mxGeometry>
        </mxCell>
        <mxCell id="VPkiGNfmG6axSRrIselH-31" value="Нет" style="edgeLabel;html=1;align=center;verticalAlign=middle;resizable=0;points=[];" vertex="1" connectable="0" parent="VPkiGNfmG6axSRrIselH-16">
          <mxGeometry x="-0.6235" y="-1" relative="1" as="geometry">
            <mxPoint x="-1" y="18" as="offset" />
          </mxGeometry>
        </mxCell>
        <mxCell id="VPkiGNfmG6axSRrIselH-20" style="edgeStyle=orthogonalEdgeStyle;rounded=0;orthogonalLoop=1;jettySize=auto;html=1;entryX=0;entryY=0.5;entryDx=0;entryDy=0;" edge="1" parent="1" source="VPkiGNfmG6axSRrIselH-8" target="VPkiGNfmG6axSRrIselH-18">
          <mxGeometry relative="1" as="geometry" />
        </mxCell>
        <mxCell id="VPkiGNfmG6axSRrIselH-32" value="Да" style="edgeLabel;html=1;align=center;verticalAlign=middle;resizable=0;points=[];" vertex="1" connectable="0" parent="VPkiGNfmG6axSRrIselH-20">
          <mxGeometry x="-0.7733" y="-2" relative="1" as="geometry">
            <mxPoint x="3" y="-2" as="offset" />
          </mxGeometry>
        </mxCell>
        <mxCell id="VPkiGNfmG6axSRrIselH-8" value="" style="rhombus;whiteSpace=wrap;html=1;" vertex="1" parent="1">
          <mxGeometry x="560" y="415" width="50" height="50" as="geometry" />
        </mxCell>
        <mxCell id="VPkiGNfmG6axSRrIselH-26" style="edgeStyle=orthogonalEdgeStyle;rounded=0;orthogonalLoop=1;jettySize=auto;html=1;entryX=0.5;entryY=0;entryDx=0;entryDy=0;" edge="1" parent="1" source="VPkiGNfmG6axSRrIselH-13" target="VPkiGNfmG6axSRrIselH-28">
          <mxGeometry relative="1" as="geometry">
            <mxPoint x="995" y="415" as="targetPoint" />
          </mxGeometry>
        </mxCell>
        <mxCell id="VPkiGNfmG6axSRrIselH-13" value="Оценить качество услуги" style="shape=ext;rounded=1;html=1;whiteSpace=wrap;" vertex="1" parent="1">
          <mxGeometry x="830" y="250" width="120" height="80" as="geometry" />
        </mxCell>
        <mxCell id="VPkiGNfmG6axSRrIselH-25" style="edgeStyle=orthogonalEdgeStyle;rounded=0;orthogonalLoop=1;jettySize=auto;html=1;dashed=1;" edge="1" parent="1" source="VPkiGNfmG6axSRrIselH-14" target="VPkiGNfmG6axSRrIselH-2">
          <mxGeometry relative="1" as="geometry" />
        </mxCell>
        <mxCell id="VPkiGNfmG6axSRrIselH-27" style="edgeStyle=orthogonalEdgeStyle;rounded=0;orthogonalLoop=1;jettySize=auto;html=1;entryX=0.5;entryY=1;entryDx=0;entryDy=0;" edge="1" parent="1" source="VPkiGNfmG6axSRrIselH-14" target="VPkiGNfmG6axSRrIselH-28">
          <mxGeometry relative="1" as="geometry">
            <mxPoint x="995" y="465" as="targetPoint" />
          </mxGeometry>
        </mxCell>
        <mxCell id="VPkiGNfmG6axSRrIselH-14" value="Выполнить рейс" style="shape=ext;rounded=1;html=1;whiteSpace=wrap;" vertex="1" parent="1">
          <mxGeometry x="830" y="540" width="120" height="80" as="geometry" />
        </mxCell>
        <mxCell id="VPkiGNfmG6axSRrIselH-15" value="" style="shape=mxgraph.bpmn.shape;html=1;verticalLabelPosition=bottom;labelBackgroundColor=#ffffff;verticalAlign=top;perimeter=ellipsePerimeter;outline=end;symbol=general;" vertex="1" parent="1">
          <mxGeometry x="690" y="265.00000000000006" width="50" height="50" as="geometry" />
        </mxCell>
        <mxCell id="VPkiGNfmG6axSRrIselH-23" style="edgeStyle=orthogonalEdgeStyle;rounded=0;orthogonalLoop=1;jettySize=auto;html=1;entryX=0;entryY=0.5;entryDx=0;entryDy=0;" edge="1" parent="1" source="VPkiGNfmG6axSRrIselH-18" target="VPkiGNfmG6axSRrIselH-13">
          <mxGeometry relative="1" as="geometry">
            <Array as="points">
              <mxPoint x="785" y="290" />
            </Array>
          </mxGeometry>
        </mxCell>
        <mxCell id="VPkiGNfmG6axSRrIselH-24" style="edgeStyle=orthogonalEdgeStyle;rounded=0;orthogonalLoop=1;jettySize=auto;html=1;entryX=0;entryY=0.5;entryDx=0;entryDy=0;" edge="1" parent="1" source="VPkiGNfmG6axSRrIselH-18" target="VPkiGNfmG6axSRrIselH-14">
          <mxGeometry relative="1" as="geometry">
            <Array as="points">
              <mxPoint x="785" y="580" />
            </Array>
          </mxGeometry>
        </mxCell>
        <mxCell id="VPkiGNfmG6axSRrIselH-18" value="" style="shape=mxgraph.bpmn.shape;html=1;verticalLabelPosition=bottom;labelBackgroundColor=#ffffff;verticalAlign=top;perimeter=rhombusPerimeter;background=gateway;outline=none;symbol=parallelGw;" vertex="1" parent="1">
          <mxGeometry x="760" y="415" width="50" height="50" as="geometry" />
        </mxCell>
        <mxCell id="VPkiGNfmG6axSRrIselH-30" style="edgeStyle=orthogonalEdgeStyle;rounded=0;orthogonalLoop=1;jettySize=auto;html=1;" edge="1" parent="1" source="VPkiGNfmG6axSRrIselH-28" target="VPkiGNfmG6axSRrIselH-29">
          <mxGeometry relative="1" as="geometry" />
        </mxCell>
        <mxCell id="VPkiGNfmG6axSRrIselH-28" value="" style="shape=mxgraph.bpmn.shape;html=1;verticalLabelPosition=bottom;labelBackgroundColor=#ffffff;verticalAlign=top;perimeter=rhombusPerimeter;background=gateway;outline=none;symbol=parallelGw;" vertex="1" parent="1">
          <mxGeometry x="970" y="415" width="50" height="50" as="geometry" />
        </mxCell>
        <mxCell id="VPkiGNfmG6axSRrIselH-29" value="" style="shape=mxgraph.bpmn.shape;html=1;verticalLabelPosition=bottom;labelBackgroundColor=#ffffff;verticalAlign=top;perimeter=ellipsePerimeter;outline=end;symbol=general;" vertex="1" parent="1">
          <mxGeometry x="1070" y="415.00000000000006" width="50" height="50" as="geometry" />
        </mxCell>
        <mxCell id="VPkiGNfmG6axSRrIselH-33" value="Заявка принята?" style="text;html=1;align=center;verticalAlign=middle;resizable=0;points=[];autosize=1;strokeColor=none;fillColor=none;" vertex="1" parent="1">
          <mxGeometry x="525" y="458" width="120" height="30" as="geometry" />
        </mxCell>
        <mxCell id="VPkiGNfmG6axSRrIselH-35" value="Заявка отклонена" style="text;html=1;align=center;verticalAlign=middle;resizable=0;points=[];autosize=1;strokeColor=none;fillColor=none;" vertex="1" parent="1">
          <mxGeometry x="655" y="315" width="120" height="30" as="geometry" />
        </mxCell>
        <mxCell id="VPkiGNfmG6axSRrIselH-36" value="Путевой лист" style="text;html=1;align=center;verticalAlign=middle;resizable=0;points=[];autosize=1;strokeColor=none;fillColor=none;" vertex="1" parent="1">
          <mxGeometry x="840" y="708" width="100" height="30" as="geometry" />
        </mxCell>
        <mxCell id="VPkiGNfmG6axSRrIselH-37" value="Заявка выполнена" style="text;html=1;align=center;verticalAlign=middle;resizable=0;points=[];autosize=1;strokeColor=none;fillColor=none;" vertex="1" parent="1">
          <mxGeometry x="1030" y="465" width="130" height="30" as="geometry" />
        </mxCell>
        <mxCell id="VPkiGNfmG6axSRrIselH-38" value="" style="endArrow=none;html=1;rounded=0;" edge="1" parent="1">
          <mxGeometry width="50" height="50" relative="1" as="geometry">
            <mxPoint x="200" y="240" as="sourcePoint" />
            <mxPoint x="1160" y="240" as="targetPoint" />
          </mxGeometry>
        </mxCell>
        <mxCell id="VPkiGNfmG6axSRrIselH-39" value="" style="endArrow=none;html=1;rounded=0;" edge="1" parent="1">
          <mxGeometry width="50" height="50" relative="1" as="geometry">
            <mxPoint x="200" y="370" as="sourcePoint" />
            <mxPoint x="1160" y="370" as="targetPoint" />
          </mxGeometry>
        </mxCell>
        <mxCell id="VPkiGNfmG6axSRrIselH-40" value="" style="endArrow=none;html=1;rounded=0;" edge="1" parent="1">
          <mxGeometry width="50" height="50" relative="1" as="geometry">
            <mxPoint x="200" y="520" as="sourcePoint" />
            <mxPoint x="1160" y="520" as="targetPoint" />
          </mxGeometry>
        </mxCell>
        <mxCell id="VPkiGNfmG6axSRrIselH-41" value="" style="endArrow=none;html=1;rounded=0;" edge="1" parent="1">
          <mxGeometry width="50" height="50" relative="1" as="geometry">
            <mxPoint x="200" y="738" as="sourcePoint" />
            <mxPoint x="1160" y="738" as="targetPoint" />
          </mxGeometry>
        </mxCell>
        <mxCell id="VPkiGNfmG6axSRrIselH-42" value="" style="endArrow=none;html=1;rounded=0;" edge="1" parent="1">
          <mxGeometry width="50" height="50" relative="1" as="geometry">
            <mxPoint x="200" y="240" as="sourcePoint" />
            <mxPoint x="200" y="738" as="targetPoint" />
          </mxGeometry>
        </mxCell>
        <mxCell id="VPkiGNfmG6axSRrIselH-44" value="" style="endArrow=none;html=1;rounded=0;" edge="1" parent="1">
          <mxGeometry width="50" height="50" relative="1" as="geometry">
            <mxPoint x="240" y="240" as="sourcePoint" />
            <mxPoint x="240" y="738" as="targetPoint" />
          </mxGeometry>
        </mxCell>
        <mxCell id="VPkiGNfmG6axSRrIselH-46" value="" style="endArrow=none;html=1;rounded=0;" edge="1" parent="1">
          <mxGeometry width="50" height="50" relative="1" as="geometry">
            <mxPoint x="1160" y="240" as="sourcePoint" />
            <mxPoint x="1160" y="738" as="targetPoint" />
          </mxGeometry>
        </mxCell>
        <mxCell id="VPkiGNfmG6axSRrIselH-47" value="Клиент" style="text;html=1;align=center;verticalAlign=middle;resizable=0;points=[];autosize=1;strokeColor=none;fillColor=none;rotation=-90;" vertex="1" parent="1">
          <mxGeometry x="190" y="290" width="60" height="30" as="geometry" />
        </mxCell>
        <mxCell id="VPkiGNfmG6axSRrIselH-48" value="Компания" style="text;html=1;align=center;verticalAlign=middle;resizable=0;points=[];autosize=1;strokeColor=none;fillColor=none;rotation=-90;" vertex="1" parent="1">
          <mxGeometry x="180" y="425" width="80" height="30" as="geometry" />
        </mxCell>
        <mxCell id="VPkiGNfmG6axSRrIselH-49" value="Водитель" style="text;html=1;align=center;verticalAlign=middle;resizable=0;points=[];autosize=1;strokeColor=none;fillColor=none;rotation=-90;" vertex="1" parent="1">
          <mxGeometry x="180" y="610" width="80" height="30" as="geometry" />
        </mxCell>
      </root>
    </mxGraphModel>
  </diagram>
</mxfile>
